/* XPM */
static const char *blood_vial64[] = {
/* columns rows colors chars-per-pixel */
"64 64 208 2 ",
"   c #1B1D07",
".  c #1D1E08",
"X  c #211F09",
"o  c #1A2007",
"O  c #1E2409",
"+  c #1E2A0A",
"@  c #182A07",
"#  c #1E320B",
"$  c #1F390C",
"%  c #25250A",
"&  c #29250B",
"*  c #242B0B",
"=  c #2D290D",
"-  c #292C0C",
";  c #292C0C",
":  c #2A2C0D",
">  c #292E0D",
",  c #2A2E0D",
"<  c #2C2C0D",
"1  c #2E2E0E",
"2  c #2D2E0D",
"3  c #2A2B0C",
"4  c #312D0E",
"5  c #372F0F",
"6  c #352E0F",
"7  c #352E0F",
"8  c #382F0F",
"9  c #382F0F",
"0  c #22320C",
"q  c #27320D",
"w  c #26310C",
"e  c #25320C",
"r  c #29320D",
"t  c #2A310D",
"y  c #2D310E",
"u  c #2A320D",
"i  c #24380D",
"p  c #36310F",
"a  c #35310F",
"s  c #38300F",
"d  c #2E2B11",
"f  c #272810",
"g  c #342E11",
"h  c #382F10",
"j  c #392F10",
"k  c #2E3414",
"l  c #373210",
"z  c #373110",
"x  c #373210",
"c  c #393110",
"v  c #3B3110",
"b  c #393210",
"n  c #3B3211",
"m  c #3C3111",
"M  c #3C3110",
"N  c #3C3211",
"B  c #3D3211",
"V  c #3C3311",
"C  c #3E3211",
"Z  c #3F3311",
"A  c #3F3312",
"S  c #3B3211",
"D  c #34351A",
"F  c #38351B",
"G  c #3B391D",
"H  c #353918",
"J  c #3A3B23",
"K  c #4C0A00",
"L  c #530A00",
"P  c #541101",
"I  c #5E1300",
"U  c #561A0B",
"Y  c #740300",
"T  c #7F0202",
"R  c #6F1701",
"E  c #621300",
"W  c #741902",
"Q  c #791900",
"!  c #59271F",
"~  c #5C2619",
"^  c #413616",
"/  c #433B1D",
"(  c #413817",
")  c #73220F",
"_  c #7A210A",
"`  c #63281A",
"'  c #5C2C23",
"]  c #413D26",
"[  c #413F2A",
"{  c #7F2F2E",
"}  c #74372E",
"|  c #623E33",
" . c #622C25",
".. c #3E432C",
"X. c #3C4127",
"o. c #3F4432",
"O. c #44432B",
"+. c #4E472D",
"@. c #484225",
"#. c #51482D",
"$. c #444534",
"%. c #4D4C34",
"&. c #4D4938",
"*. c #464F31",
"=. c #524F39",
"-. c #534D35",
";. c #4E533A",
":. c #5A543D",
">. c #51503B",
",. c #624035",
"<. c #7C4031",
"1. c #4F5241",
"2. c #535343",
"3. c #5A5644",
"4. c #59574B",
"5. c #5C5B4C",
"6. c #5E5847",
"7. c #5D5D5A",
"8. c #664A41",
"9. c #6A4D47",
"0. c #645F4B",
"q. c #68534D",
"w. c #6A5A56",
"e. c #6B5B58",
"r. c #5F6050",
"t. c #62604D",
"y. c #68604B",
"u. c #61615D",
"i. c #696A5D",
"p. c #696455",
"a. c #726D5B",
"s. c #6D705C",
"d. c #656462",
"f. c #6A6562",
"g. c #676866",
"h. c #6A6964",
"j. c #6B6B6A",
"k. c #796464",
"l. c #716E6D",
"z. c #706764",
"x. c #72716C",
"c. c #7B7868",
"v. c #6F7070",
"b. c #727270",
"n. c #7C7A74",
"m. c #800000",
"M. c #860900",
"N. c #900A00",
"B. c #881200",
"V. c #8D1C00",
"C. c #821308",
"Z. c #951E00",
"A. c #911408",
"S. c #801312",
"D. c #8C2207",
"F. c #AB2504",
"G. c #BB2601",
"H. c #BD2902",
"J. c #B92E0A",
"K. c #B03C1D",
"L. c #802E2E",
"P. c #823838",
"I. c #933A24",
"U. c #AE4225",
"Y. c #A8472E",
"T. c #8C5A4E",
"R. c #9E5F4E",
"E. c #9F604F",
"W. c #9E6353",
"Q. c #86625A",
"!. c #886965",
"~. c #84736E",
"^. c #807E77",
"/. c #967C74",
"(. c #987C74",
"). c #946A64",
"_. c #A1776C",
"`. c #838175",
"'. c #8C8A7E",
"]. c #93807B",
"[. c #8E8484",
"{. c #8D8D8C",
"}. c #8F8F87",
"|. c #928E87",
" X c #93928D",
".X c #929286",
"XX c #969593",
"oX c #999996",
"OX c #9C9C9A",
"+X c #A08C84",
"@X c #A69D9A",
"#X c #AA928A",
"$X c #A6A29D",
"%X c #A7A7A4",
"&X c #ACADAB",
"*X c #A8A8A7",
"=X c #B2AFA8",
"-X c #B4B0AC",
";X c #B5B6B1",
":X c #B9B9B8",
">X c #C0C0BF",
",X c #C5C4C2",
"<X c #CCCCCB",
"1X c #D0CFCC",
"2X c #D3D3D2",
"3X c #DBDCDB",
"4X c #E3E3E3",
"5X c #EAEAEA",
/* pixels */
"& 6 6 > w a h 8 b b 6 * > b M < > b b > 3 6 h h h b 4 % 3 M M > w l 6 & * 6 a a a 8 4 & & M b t w a 4 * * 4 b b s s 6 > > b M 4 ",
"& h b t r b ^ M M M b < > M M < > b b > > b M M ^ M s * 3 b M > > b M = & b M M M M M = = M b t > b b > < b M M M M b < < M M 4 ",
"& j M t t l n b b b l > > b b < > M M > > a M M M M 6 % * 6 6 * 3 M M = & 8 M M M M b = & b l w > b M < > b M b b n b < < M 6 % ",
"& M M < * t r t t < > + * < t e t M M 3 + > < y < = % O O % %   % M M & % 3 t < > > > % * > w # w b M 3 * w t w w r t > > = &   ",
"= M M < * < t w w < > > < y w # t b M > * > > 0 * > 3 * * & % . % M M & % > t * * > < 3 3 < w 0 t M M 3 * w w # # w y < 4 = & O ",
"4 M M > 3 b b > < b M b M M a > t M M < < b b > 3 b M b b M h 3 3 M M > > b b * * s M M M M l > < M M = = b l w w l M M M h 6 = ",
"t l b > < M M & 3 b M b M M l > > b b = < M M 4 & 6 M b M M b < > l l t t M M > 3 s M M M M h < = b b = = M M t > h M M M b l = ",
"# t > * < M M 3 % 3 & 3 = 4 y * * = = % 3 M M = X % & % & 3 > * 0 t w e t M M > * < = % % & & % % & % O * b M > * 3 = = & 3 > * ",
"t y < * > M M > % = % O * 4 a t > 3 % O & M b & X & % O O * > > t t w e t M M > * 3 &   . % = = & & % O * M M > * 3 & % O * > > ",
"M M b > < M M = & h h 3 3 b M M M M 8 3 3 M b & & 6 6 & * 6 M M M M b t t b M < > a 8 * & 6 M M M b 6 3 = M M > > b h & & 6 b b ",
"b b l > > b b = & M M > > h M M M M a > 3 6 a 3 3 b b = < s M h b M 6 > e a a t > b b > 3 6 b M b b b = = 6 6 % 3 M M = & 8 M h ",
"< > t e w < > * 3 b b 3 * 3 & % % * * + * % 3 * 3 b M < * > < & % & % + + w w * > b b 3 * * 3 & % 3 > * % % % . & M M * O & = & ",
"* > t r r < > * > b b * O & %     % 3 3 3 & 3 * > b M y > > < % . % & * > t > * > M M 3 % % %   o * > 3 3 = & . & M M 3 O * & % ",
"> a M M n M l < 4 M h & & 8 6 % % 6 b M b b s > > b b t t b b 3 % 6 b b b b a > > M M = & 6 6 % % 6 b b M M 8 & = M b 3 * a 8 = ",
"> l M M M M b < > b 6 & = M M 3 3 a b b M M b > > a a e r M M > * 6 h M M M b > > b b = = M M = & 6 b b M M 8 & & 6 6 > > b b < ",
"+ * > 3 > > > * O 3 & X & h b 3 * w > > 3 = & * 0 w e $ r b M > + % & 3 3 > > + % & & % & M M = X & & & & & & .   % % * > b b a ",
"* > 3 % * > > > & = & % & b b > * t > % % = = 3 > t e i t b M > * 3 % O O * > > & = 3 * 3 b b & X & & O O % = & % & * + w b M a ",
"> l b & % 6 M M h M h > > b b y y b h & % b M M M A :.i.@.M M < < b a * % G 0.3./ M 8 * 3 M b & & 6 s > * 6 M M M M a w r n M 4 ",
"3 M M & % 6 M M M M b > > l b t < M M & % h M b @.c.=X;Xt.b b > < n M > * %.'.^.a.#.b & & b 8 & 3 M b > > 6 M M M M l w e l b 4 ",
"< M M % . % = = = = 3 % + > > + > M M %   % > %..X1X<X%X5.= < * * M M > @ *.$XOXn.h.=.f * > > * w b b t * * 3 3 3 < < * 0 w t > ",
"4 M b % . & = % % & & 3 > > > * < M M & . D i.;X4X2X*XXXt.= 3 * > b M > + ;.;X2XOXx.x.5.J k > 0 w b M t # > > % % 3 > > > t r > ",
"y b s & & h h = = h M M M M a 3 4 M M & F |.<X5X5X<XOXoX`.#.b > > M M 3 G '.3X4X&Xj.g.j.x.-.l w w b M > > a b 3 * 6 M M M M a > ",
"> 6 6 % = M b & = b M b M M b < < b 8 % O.-X<X<X4X3X&XXXoX`.+.> > s 6 D `.2X4X<X{.d.7.u.n.:.b t > 6 8 3 3 M M 3 % 6 b M M M a 3 ",
"O % % O 3 M b 3 * > > > < y r w w > & . d 0.|.&X2X4X,XOXXXoXn.X.* < G `.2X3X<X&Xj.7.7.f.2.D > * O & & O * M M = O % 3 < < > * % ",
"% & % % = M M > * > * * * > t r t > & X & h y.OX:X,X#X(. XXXoXn.O.J `.2X3X>X@X~.d.7.h.5.% % > * * = & O * b M > * 3 3 * * 3 3 & ",
"M M 6 * < M M < > a a > > b b b b b b = = 8 :. XOX_.U.K.R.]. XoX`.'.,X<X$X!.} ` 8.d.j.4.& 4 b b b M 8 * 3 b M = 3 h h * 3 b b h ",
"M M 6 * > b l > > M M 4 3 a b b b M b = & A a.oX(.K.G.G.J.U.E./.XX&X@X!.<.) I P U q.j.i.G s M h b b h > 3 6 6 % & b b 3 % 6 h h ",
"% & % O * > > + > M M & O w t t < 4 d O.O.0. XXXW.J.H.H.G.G.F.I.T.Q.<.) R I P P P | g.j.t.O.O.g & & 3 * * 3 % . % b b & . & & % ",
". % & 3 > > > * > M M % O t r w 3 = [ }.oXoXXX(.U.H.H.H.G.F.Z.V.D._ W R I P P P P ~ q.g.h.i.u.J O % 3 > = & % . & M M & % = = % ",
"* 6 M M M M l > > M M 3 * l l w > 6 #. X%X*X+XY.G.G.G.G.F.Z.V.V.V.Q R I P P P P P P ~ w.g.g.d.[ % 6 M M b h h % & M M = & b b < ",
"> b M M M M l * * b a > > M b w w a ^ p.XXOX).A.N.N.N.N.M.B.V.V.V.W I P P P P P P P P | j.g.5.D & 8 M M M M h 3 3 l l > > M M a ",
"e t < 3 * 3 * + % 3 % * > M b t 0 > = ] n.XX!.S.T T T T T m.M.B.B.E P P P P P P P P U 8.j.f.-.%   % > > > 3 3 * + w w i w b M a ",
"w t > * O % 3 3 3 = 3 % 3 M M t 0 > 3 & 4.{.[.P.T T T T m.T T m.Y L K L L L P P P P ' z.j.p./ %   % > + + > < < > t w i e b M y ",
"a M b * 3 h M M M M b 3 3 M M t t l b & ] n.XX!.S.T m.m.m.m.m.m.Y L K K K K K K K U 9.j.d.:.A = 3 a l > * a M M M M l e w b b t ",
"6 M b > > h M M M M b > * 6 b * 3 M M & & 5.{.[.P.T m.m.m.m.m.m.Y L K K K K K K K ' f.g.4./ s < < M M > 3 b M M M M l w w a 6 > ",
"4 b b > * 3 < 3 % & 3 * * < > O & M M %   J b.XX!.S.T m.m.m.m.m.Y L K K K K K K P 9.j.u...3 > * y M M & % 3 < 3 & & > * + * & % ",
"4 b M 3 % = > O O % * > > y > O 3 M M %   & 4.{.[.P.T T m.m.m.m.Y L K K K K K K ' f.j.5.D 3 > e y M M & . % 3 O O % 3 > 3 3 & % ",
"= M M 3 > b 6 * * 6 b b b b b > > b M & % 6 +.n.{.!.{ T T m.m.m.Y L K K K K K ! e.j.f.:.M M b y < M M = % 4 6 * % 6 b b h b 8 = ",
"& 6 h 3 > M M > > a M M b h 6 * > a 6 % & h ^ =.j.b.k.{ T T m.m.Y L K K K K ! e.j.d.3./ b M b 3 % 6 6 % & h b * % 4 b b b b 6 & ",
". & & % 3 M b t # w t > % % * + + > * O % h b d o.g.b.k.{ T T m.Y L K K K ! e.j.d.1.k t t > * .   % %   & h M % O % > > t > & . ",
"& & & % & M M t 0 t w + o % 3 t > < < + * b b % % &.h.b.k.L.T m.Y L K K ! e.j.d.1.D * # e y = % & & % O & b M 3 * * > 0 # > 3 % ",
"j h 6 & & M M < t b a * % 6 M M M M b > * b M = & A =.h.j.k.L.m.Y L K ! e.j.d.2.D 4 a e y b b h h h 4 % & M M 4 < s b t w a M b ",
"M M h & & 6 6 > < M M & % 6 M M M M 6 * * l b < 4 M ^ &.g.b.k.{ Y L ! e.j.d.3.D 3 b b r r l b b M M h & % 8 b < 4 M M y t l M M ",
"> 3 3 % . % 3 + > M b & O % & & & & & O * > > * > b b d $.g.b.k.}  .e.j.d.2.D * > b b w + * & & = 4 = X % < 3 % = M M t * t t t ",
"* > 3 = 3 = 3 * > b b 3 + * & X X = = & 3 > > * t b h & f &.h.l.l.z.j.d.2.F & % > b b > + % % % % = & & = 4 3 % & M M > * < y w ",
"< b M M M M b > > b b 3 * 6 h & & h M M M b l > y M M 3 3 A :.h.j.j.d.6./ M h 3 > b M 3 3 6 8 & & b M M M M h & 4 M M > > b b < ",
"> 6 b b b M a w t l a * & M M & & 6 b b M M b < = 6 h > > b ( ;.d.d.3./ h h 6 * * 6 h < < M M = 3 6 b M M M b = 4 b 6 3 3 M M 4 ",
"* * > 3 3 < > i e y < % * M M & % > t w t < < * % % % O > b M H ..$.H 3 & & % . X = 3 * < M M < % % & % * > 3 * * < > * & M M 4 ",
"* > * O % 3 t r i y y * 3 M M & % > t 0 * > < 3 & & & % 3 M M r 0 > > * % & & % & = & * > M M t + * & % O > > > > < > O % h M 4 ",
"= b a % & 6 b n n n b & & b b % % b b w w s M M b M b < < M M > > a s < 3 6 M M M M b > > M n r w 6 b 3 * a M M M M h & & b M 4 ",
"4 M M 3 3 a M M M M a & % 6 8 & = M b r e l M M b b b y > a 6 * > M M = & 6 b M M M b < > l b t > b M < 3 b n b b M 8 & % 6 6 = ",
"4 M M 3 * * & > y t > O O 3 = % & h b i i t < > * > t w * * % O 3 M b %   % & % & > > * * > > * 3 M M < % > t r t > 3 .   % % O ",
"4 M M 3 % % 3 w w r t 3 & = = X % b M r i < > * * > y y > > 3 % & M M %   % % . % 3 > > > > 3 % & M M > * > t $ 0 > 3 % % % % O ",
"4 M M 3 * 6 l t r n M M M M 8 % & M M y > l h 3 > b M M b b b 3 3 M b & % 6 6 % & a b b M M b = = M M t > a l e t b M b b b 6 % ",
"4 8 6 % & M M t w b M M M M b 3 3 b b > < M M = & h b b M M b 3 3 h 6 & & M M & & a M b M M b & & b l t t b b y y b M M M M 6 3 ",
"% % % O & M M > + > > * > < < * * > > * t b M & % & > r t < = % % & & . X b M % O * > > > < = % . 3 > 0 y b M < * < 4 < > > * % ",
"& & % X & M M * O * * + * > < > > < > * t b M & % & * 0 e > < = = & & . % M M 3 % > > + * > = & = = > * < M M 3 + > < * + > 3 3 ",
"M M 6 % & M M & & h 6 * > a M M M M l > > b M = 3 h 6 > t b M M M h 7 & = M M 4 = l b t t b M M M M l 3 3 M M 3 * b b > > l M M ",
"M M h % % h b & 3 M M 3 * 6 M M M M b > > b 8 & & M b 3 * 6 b M M M l 3 = b b < < M M a y b M M M M 6 % % 6 h % & M M < > l M b ",
"y 4 = % % = < * 3 b b 3 O % = = = 4 = * + > & X % h b 3 O * < > > t t * * y y + > M M < * 3 3 & = = & O O % & O % b b > # w t t ",
"i t = & & 3 > * 3 b b 3 O % & X % & & 3 > > & % & h h & . * < * * w w t t y w + > b M 3 + * & % X & & % % = = % & M M > # w t 0 ",
"y l b b M M h & * b M 3 % 6 6 & & h b b M M b = = b h & & 6 b 3 > l b b b M a > > M M & & 6 b 3 3 6 b b M M b = = M b t w l l r ",
"< b b b M M h % % 6 8 & 3 M M 3 3 h b b M M h & & h 6 % & h M 3 > l b b b b l > 3 6 6 % & M M y t b M M M M b 3 * 6 a > t M b y ",
"> < y > > < = O O = = % < M M < * < 4 & = 6 4 % % 4 & . & h b * * t < > < y t * * 3 & X & M b t * > 4 4 4 4 < * + * > * > b b < "
};
