/* XPM */
static const char *exit64[] = {
/* columns rows colors chars-per-pixel */
"64 64 216 2 ",
"   c #1B190A",
".  c #1F1613",
"X  c #110D08",
"o  c #201F09",
"O  c #211611",
"+  c #251B15",
"@  c #2C1C15",
"#  c #251E1A",
"$  c #301F17",
"%  c #311F18",
"&  c #1F2209",
"*  c #24250A",
"=  c #29270B",
"-  c #252B0B",
";  c #2B2B0C",
":  c #342E0E",
">  c #382F0F",
",  c #25310C",
"<  c #2B310D",
"1  c #35300F",
"2  c #38300F",
"3  c #2D2E10",
"4  c #26201B",
"5  c #2D221B",
"6  c #322E10",
"7  c #34221A",
"8  c #3B251C",
"9  c #3F281D",
"0  c #362E16",
"q  c #2D3312",
"w  c #343213",
"e  c #3A3110",
"r  c #34351A",
"t  c #3A3619",
"y  c #36391D",
"u  c #3A391D",
"i  c #2E2B2A",
"p  c #2C2621",
"a  c #352B24",
"s  c #3A2C24",
"d  c #322D2C",
"f  c #3A2E2C",
"g  c #363324",
"h  c #3C3C23",
"j  c #353129",
"k  c #39352B",
"l  c #3C392C",
"z  c #383822",
"x  c #343234",
"c  c #3D3B31",
"v  c #35363A",
"b  c #3C3A3B",
"n  c #3A3535",
"m  c #432A1E",
"M  c #423A1C",
"N  c #403718",
"B  c #5C341A",
"V  c #452D21",
"C  c #4A2F21",
"Z  c #402F29",
"A  c #4D3223",
"S  c #433E25",
"D  c #413D2D",
"F  c #463429",
"G  c #533524",
"H  c #5B3A27",
"J  c #5D3C2A",
"K  c #533827",
"L  c #413D3C",
"P  c #423A31",
"I  c #5C3E36",
"U  c #623E29",
"Y  c #6E3F18",
"T  c #3E4025",
"R  c #3E402B",
"E  c #454026",
"W  c #43422D",
"Q  c #49432A",
"!  c #49442A",
"~  c #454332",
"^  c #4A4532",
"/  c #4D4935",
"(  c #48473C",
")  c #534835",
"_  c #65412A",
"`  c #6C452D",
"'  c #71492F",
"]  c #70472E",
"[  c #6C5E2F",
"{  c #774D31",
"}  c #725A35",
"|  c #796333",
" . c #6E602F",
".. c #3D3B43",
"X. c #433D46",
"o. c #424246",
"O. c #44414C",
"+. c #49464C",
"@. c #4C4B48",
"#. c #52514A",
"$. c #545046",
"%. c #4A4654",
"&. c #4E495B",
"*. c #4B4652",
"=. c #534C5D",
"-. c #544C57",
";. c #545353",
":. c #5A585A",
">. c #504E43",
",. c #625351",
"<. c #7F6A4F",
"1. c #534E62",
"2. c #595365",
"3. c #5C5669",
"4. c #5B5566",
"5. c #635C6D",
"6. c #635C63",
"7. c #665F70",
"8. c #6B696C",
"9. c #666368",
"0. c #6C6574",
"q. c #6F6B75",
"w. c #676071",
"e. c #716C76",
"r. c #736F78",
"t. c #74737A",
"y. c #79767B",
"u. c #7C7A7D",
"i. c #767578",
"p. c #77706C",
"a. c #885514",
"s. c #824F15",
"d. c #84633D",
"f. c #956D32",
"g. c #A47522",
"h. c #8C7A56",
"j. c #92744C",
"k. c #A07A43",
"l. c #847C70",
"z. c #B78818",
"x. c #BC951D",
"c. c #BC9838",
"v. c #B38D31",
"b. c #C99918",
"n. c #D19E12",
"m. c #D7A81B",
"M. c #C39A25",
"N. c #C69B27",
"B. c #C09E3B",
"V. c #C8A336",
"C. c #DBB23A",
"Z. c #D3A92C",
"A. c #A99156",
"S. c #AF9050",
"D. c #BEA05D",
"F. c #8D826C",
"G. c #97886A",
"H. c #8E8573",
"J. c #988C77",
"K. c #9B917F",
"L. c #AD9770",
"P. c #BAA373",
"I. c #C19D41",
"U. c #D9B446",
"Y. c #D0AE52",
"T. c #E0BB4A",
"R. c #C7AA66",
"E. c #CDB16B",
"W. c #D7B967",
"Q. c #C4AC7B",
"!. c #CCB479",
"~. c #D8BD76",
"^. c #F1CA46",
"/. c #EEC94A",
"(. c #DEC16E",
"). c #DCC175",
"_. c #E4C567",
"`. c #E2C777",
"'. c #7D7D82",
"]. c #7F8086",
"[. c #818286",
"{. c #83858A",
"}. c #86898E",
"|. c #8B8C8F",
" X c #928F8B",
".X c #878A91",
"XX c #8A8D94",
"oX c #8B8F98",
"OX c #8D929B",
"+X c #8D9095",
"@X c #92969D",
"#X c #96989A",
"$X c #9B9384",
"%X c #9A9EA3",
"&X c #959AA1",
"*X c #9CA1A6",
"=X c #9EA3A8",
"-X c #A5AAAD",
";X c #A7AAAB",
":X c #A9AEB1",
">X c #A7ACB0",
",X c #ADB1B3",
"<X c #B4B7B7",
"1X c #B1A58C",
"2X c #D3BD85",
"3X c #C9B68A",
"4X c #D7C79B",
"5X c #CFC099",
"6X c #ECD790",
"7X c #CBC2A9",
"8X c #CDC8B5",
"9X c #D4CDB4",
"0X c #D6CCAC",
"qX c #E6D8A8",
"wX c #F3E3A1",
"eX c #DBD9C3",
/* pixels */
"= : : ; < : > : e e : - ; e e ; - 2 2 ; ; : e e e e : * ; e e ; ; 2 : ; - : 2 e e : : * - e e < < 2 : - ; : e e 2 : : ; ; e e : ",
"= : e < < 2 e e e e 2 ; ; e e ; ; e 2 ; ; e e e e e : * ; e e ; - 2 e ; ; : e e e e > ; ; e e < ; 2 2 ; ; 2 e e e e 2 ; ; e e : ",
"= : e < < 2 e e e e : ; ; 2 2 ; ; e e ; ; : e e e e : * - : : = = > e ; ; : e e e e : ; ; : 2 < ; e e ; ; 2 e e e e 2 ; ; 2 : ; ",
"; e e ; ; < 1 1 < ; - - - < < , < e e ; - ; ; < ; ; ; * * * * * = > e ; * ; < ; ; ; ; * - ; < , < e e - - < < < < < < ; ; ; = * ",
"; e e : - < < < < ; ; ; ; < < , < e e ; - ; ; ; - ; ; - = ; * * = > e ; * ; < - - ; : ; ; ; , , < e e ; - < < , , < < ; ; ; * * ",
"; e e : ; e 2 ; ; : e e e e 2 ; ; e e ; ; 2 : ; - : e e e e e 6 6 t t : - 2 2 ; ; : e e e e 2 ; ; e e ; ; 2 2 < < 2 e e e : : - ",
"; 2 2 ; ; e e ; ; : e e e e 2 ; ; 2 2 ; : e e ; = : > e M E S h h S S y q e e ; - : e > e e : ; ; : : - ; e e < ; : e e e e : ; ",
", < ; ; ; e e ; * ; ; - ; : < ; - ; - * ; e e ; * ; 6 r W P j d d j l W y t e ; - - ; = = - = * * ; * * = : e ; ; ; : ; ; - ; ; ",
"< < ; - ; e e ; * ; ; * - : 1 < ; ; = * ; e 2 ; - z l l @.#.@.@.@.+.o.>.W Q E w - - = * * = ; ; ; ; * * = > e ; - ; ; = * ; - - ",
"e e : ; ; e e ; = : : - - : e e e e : - ; e M t h ( L b :.}.#X#X@X}.t.;.b ( ( R u t 6 ; = : e e e e : - ; e e ; - : : = = : e e ",
"e 2 2 ; ; 2 2 ; ; e e ; ; : e e e e : - ; t ^ W ~ :.8.e.}.-X<X<X>X%XoXu.8.8.:.~ W ^ M : ; : e e e e : ; ; : : * - e e ; * : e : ",
"; ; < < , < ; - - e 2 - - - ; ; ; - ; - r W @.+.@.i.%X-X>X,X<X8X3X$XXX@X%X+X8.o.L >./ u - * - ; ; ; - - * = * * - e e - * = ; = ",
"- ; < 1 1 < ; - ; e > = * = * * * * ; t W @.8.'.}.%X,X<X,X:X9XqXW.A.u..X&X@X{.q.8.:.( ~ r - * * * ; - - ; ; = o = e e - * * = * ",
"; 2 e e e e : ; ; e > = = : : * * 6 S / #.9.XX-X-X-X-X-X=X-X8XwX/.c.p.y.}..XoXoX.Xt.;.>.~ S 6 * * : e 2 e e : * = e e - ; : : ; ",
"; : e e e e : ; ; : : = ; e > ; : M ) >.9.@X-X-X=X&X&X=X-X,XeXwX^.N.j.l.H.[.}.OXOX}.i.;.( ) S : ; : e > e e : * = : : ; - e e ; ",
"- - ; - ; ; ; - - - = * - > e ; y ^ #.8.XX:X:X*X&XOX*X<X8X9XeXwX^.m.x.c.A.H.[.{.}..X.Xt.:.>./ t = = = = - ; = * * = ; - ; e e 1 ",
"- ; - * - - ; ; ; ; - * ; e e u ~ #.9.+X:X:X*X@XOXOX;X4XwXwXwX6XC.n.b.b.v.G.l.u.'.}.OXoXy.:.#.W w ; = * * * ; - - ; - - ; e e 2 ",
"; : : ; * : e e 2 2 : ; ; e t W ( 9.XX-X-X%X@XOXOXOX$XE./.^.^.C.g.a.s.a.d.p.i.t.u.{.oXOXOX{.9.( l e : ; - : 2 e e e : < < e e : ",
"; e e ; = : e e e e : ; ; 2 t W b 8.*X>X*X@XOXOXOXoXJ.A.I.V.Z.n.a.B G J ,.8.t.t.u.[.}.OX%X%X8.b W t e < ; : e e e e 2 < , 2 2 : ",
": e > = * * ; ; ; ; ; - - w h ( @.r.%X*X@XOXOXOXOXXX[.H.F.G.V.b.a.G L *.4.0.t.t.u.u.].oX%X=Xi.@.( E t < - ; ; ; ; : ; - , < < ; ",
": e > = * = ; * * ; ; - ; u ^ ;.q.}.&X&XOXOXOXOX+XoX}.[.u.F.B.b.a.J *.2.w.0.e.r.t.i.'..X%X-X@Xr.#./ S q , ; ; * * - ; ; < < < , ",
"1 e > = = : : ; ; 2 e 2 e E ~ ;.}.%X&XOXOXOXoXXX.XoXoX}.[.F.B.b.a.I =.5.0.0.0.e.r.i.'..X%X,X,X+X;.~ S q - : : - - : e e e e 2 < ",
"- : : * ; e e ; ; 2 e 2 e E P ;.|.*X@XOXOXOX}.{.{..XoXoX{.F.B.b.a.I =.7.0.0.0.e.t.u.[.oX*X,X<X@X-.P h 3 - e e ; * : : e e e : ; ",
"* * * * ; e e - - - ; ; 3 h c @.[.&XOXXX}.}.[.u.u.'.{.XX{.l.B.b.a.I =.7.0.0.0.e.y.].}.#X-X,X<X@X-.l y - ; e e ; * * ; : ; ; ; * ",
"= - = * ; e e ; - - - - 3 h c o.t.OX.X[.'.'.u.u.u.t.y.].'.l.v.z.s.I =.5.w.0.0.e.y.{.OX*X:X,X,X+X;.l z - ; 2 e ; - - ; - ; ; - = ",
"> 2 : - ; e e ; ; : : - 3 h c o.t..X[.y.t.t.y.y.t.e.e.t.r.p.d.s.Y I =.2.3.3.w.q.y.{.OX&X%X*X*X].+.c h 3 ; : e ; ; : : ; - : e : ",
"> > : - ; : : ; ; e e ; 3 h c o.t.{.'.i.e.e.t.t.e.0.0.0.0.w.,.) J I %.1.1.2.5.q.t.'.}.XXXXoX+Xt.o.c h 3 - : : = ; e : ; = : : : ",
"= = * * - ; ; - ; e e - - h c o.t.{.'.u.t.e.e.e.0.0.0.0.0.0.6.-.-.*.*.&.1.2.5.0.q.t.'.[.{.{.}.t.o.l y - - = = * - e : = * = = = ",
"& * - ; ; ; ; - ; e e - - z c o.t.{.'.u.y.t.e.0.0.0.0.0.q.0.w.5.3.2.&.=.1.1.3.5.0.e.t.u.u.'.[.q.o.k z ; ; ; = * - e e - * ; - * ",
"* : e e e e 2 ; ; e e ; ; h c o.t.{.'.u.u.u.r.0.0.0.0.0.0.0.0.0.w.3.1.1.1.1.1.2.5.0.q.t.u.u.'.9.X.l S e 2 2 : = ; e e ; = : : ; ",
"; 2 e e e e : - - : : - 3 S c o.t.{.].u.u.u.t.e.t.t.t.t.r.e.e.e.0.5.4.4.3.3.3.4.3.5.0.e.t.u.u.9.b l S e e e : ; ; : 2 < ; e e 2 ",
"< < ; ; - ; ; - * ; - - ; S c o.t..X{.[.l.u.t.'.#X#X#X#XK.A.A.G.K.G.h.H. X XG.h.6.3.5.0.e.t.i.6.n k h 3 ; ; ; ; - ; < , < e e 2 ",
"< < ; - * = ; ; ; ; - - 3 S P o.t.oXXX[.u.u.t.|.7X9X8X7X!.U.C.W.2X~.W.2X7X5XW.I.<.2.2.5.0.q.q.:.x k h , - - ; : ; < < , < e e 1 ",
"2 e : ; - : e e e e 2 ; 3 S P o.t.OXoX{.u.u.y.#X9X4XL.G.A.v.U.(.R.E.`.!.L.D.V.N.| -.1.3.5.0.0.2.x l S 3 - : e e e e 2 < < e e < ",
"2 e e ; - : e e e e : - 3 h c o.t.OXXX{.u.u.y.$X5XQ.j.j.d.f.R.~.L.Q.4XD.f.f.M.b.| o.%.1.2.5.w.=.x l S 6 ; : e e e e 2 < < : : ; ",
": e e - - ; ; - - ; - - , h c o.t.OXoX{.u.u.y.J.W.).2X3XD.N.C._.2X4XqXW.Y.R.U.Z.| L X.%.1.2.2.%.d l S 3 * - ; ; ; ; ; - - - * * ",
"; e e ; ; ; ; * * * - - q S c o.t.OXOX.X[.u.y.J.~.~.Q.P.D.c.C._.Q.P.!._.(.E.U.N.| b b X.%.%.%...i l S ; * * ; * * = ; ; ; - = * ",
"; e e ; ; : : ; - : 2 : e E c o.t.OXOXoX{.'.y.K.2XR.k.f.f.g.R.~.S.f.k.E.E.c.b.b.| b ..........x p k S ; * : : = = : 2 2 2 e : = ",
"= : : ; ; e e ; ; : e 2 e S c o.t.OXOX}.[.u.u.K.W.C.x.z.z.x.U.U.M.z.M.C.C.N.m.b.| o.%.%.O...v i # j h = = : > = * : : 2 2 e : = ",
"* * = * - e e < , < < ; - z k o.t.oXXX[.u.y.y.G.S.V.N.M.M.M.N.M.x.x.x.M.M.x.b.v.[ +.=.1.&.O...x 4 d r * = : : = & - ; ; < ; - * ",
"= = = * - e e < , < < - * z k o.t.}.[.'.y.r.e.p.h.h.h.h.h.<.| [ [ [ [ [ [ [  .} $.&.1.1.=.&.%...i j z * - e e ; - - ; , , ; ; = ",
"> > : = ; e e < < 2 : * - h c o.q.].u.y.r.0.w.w.9.5.4.-.*.*.o.b b b b b b b o.+.&.1.1.*.O.&.1.O.d k h - - e e ; ; : 2 < < 2 e > ",
"e e : = = : : ; : e e ; - h l b 9.u.y.e.0.w.3.1.1.=.%...b b v x v v v x x ..%.&.&.&.*.L n O.=.%.d k Q 0 = : : ; : e e 1 < 2 e e ",
"; : ; * * * - - ; e e ; - z k n 4.e.q.5.3.2.%.O.X.b x i i x d i x v x d x O.&.%.X.x k K K P X.O.d a k k 3 ; ; = ; e e ; ; ; < < ",
"; ; : ; - - - - ; e 2 3 r l j d *.3.3.=.*.X...v x s 9 7 7 a s s d d d s Z X.O.X.F V A _ _ C f b Z 9 V D S u ; * - e e ; ; ; < < ",
"; : e e e e : ; ; e e u D k 5 5 f X.+.n a d d d a A H V 7 7 A H V 7 7 A G Z f f K U ` { ` A 7 s G U J F ~ ^ t ; ; e e ; ; 2 2 ; ",
"; : e e e e 2 < < e E W P F A m 7 d P A m 7 p s G _ ` G 7 7 H ' J m 8 m G G K K K H U U H V 7 7 A U U G F / Q t ; : : ; ; e e : ",
"- ; - - ; ; < , q T W j V J _ K 9 8 C H A 7 5 V _ { ` A 7 9 U { ' K 9 7 m U ] ` G m m m 9 7 7 7 9 m V K K s D u ; ; ; - - e e : ",
"- - ; * * ; < q T ~ k 5 8 G K C 9 A H A 9 $ 7 A ` ` G 9 m H ' { U C 8 % 7 G ` { _ A 7 @ @ $ m A m 7 7 m m @ k T w ; ; - * > e : ",
"; : : * - : e E / ^ s 9 9 8 7 8 C _ ` H C 9 8 C H G 9 m A J U H m 7 7 9 9 9 K ` _ K 7 @ @ @ A _ H 9 $ % 7 7 D ) Q t : * = : e : ",
"; e e ; ; : N ^ D A J U C 7 @ 9 H ` ' ` ` J m 8 9 9 m H H m 8 7 7 $ 7 G G 8 8 m m 9 7 @ @ $ A ` ` H 8 @ 7 A A D ^ M : = * : : ; ",
"; e e ; - ; t R p 9 H J C 7 $ 7 m V A H U H m 7 7 m H ' _ 9 O @ 9 m 9 A A 7 @ O O O O O O $ V H U A $ @ 7 C 9 p E t ; * * * * * ",
": e e - * - r R j 7 7 7 7 @ @ 7 7 5 7 8 7 7 $ @ % A ` ' J m 5 a G A 7 7 7 7 5 # # 4 4 4 5 7 7 7 8 7 7 5 % 7 7 j R r - * = = * * ",
": e e ; ; : e h ~ k # . . . # k W Q ^ a + . . + % V G G 9 8 D ~ D 7 + . O 5 l l h E E Q ~ s + . # k ^ l # # k ~ h e e > > : : ; ",
": : : * ; e e w h W k j j j k W h M Q ~ k k k j 7 @ @ @ a D ^ E l k j a j D ^ t 6 t t M Q ~ k a k ^ ^ W k l ~ T t e e e e e : - ",
"* = * * - e e ; - y h z h S S y < ; w h T Q Q W 5 X X   j Q u w z z z r z S S ; * ; ; ; w z h z z z r y S Q E r ; ; : : ; ; - * ",
"- = = * - e > = * - ; - - w e ; ; ; ; ; q t N t 3     & q t 6 ; 3 ; = * - e e ; * - ; - - : 6 6 6 3 ; ; 6 t e ; - - ; ; - - ; - ",
"e e : = - e 2 ; = : : - - : e e e e : - - 2 e ; = : : - ; 2 e e e : : = - e e ; - : 2 ; ; 2 e e e e : ; ; > e ; ; : 2 ; ; : e e ",
"e e : * = : : ; = : e ; ; : > e e e 2 - ; : : * ; e e ; ; : e e e e : ; ; e e ; ; e e 2 < 2 e e e e : * * : : = - e e ; ; 2 e e ",
"< : ; * * ; ; - ; : e - * * = - ; ; ; - - - = * - > : ; * ; ; ; ; < < - ; 2 < - ; e e : ; - ; - ; ; = * * * = * ; e e ; - < < < ",
"< < ; - = ; ; ; - e e - * * * * * ; ; ; ; ; = * = : : = * ; ; - ; < < < < 2 ; & ; e e ; - ; = * * = ; = = ; - * - e e < , ; < , ",
"< 2 e e e e : - - e e ; = : : = - : : e e e : ; = : : * * : : - ; 2 e e e e 2 - ; e e - - : : - - : > > > e 2 ; ; e 2 < < 2 2 < ",
"; : 2 e e e : ; - : : ; ; e e ; ; : e e e e : ; = : : * = : e - - 2 e e e e 2 ; - : : * - e e 1 < 2 e e e e 2 ; ; : : ; ; e e < ",
"; ; < ; ; ; ; * - ; ; = ; e e : ; ; ; ; : : : = = : = o = e e - - < ; ; ; < < - - ; = * - e e : ; ; : : : : ; - - - ; - ; e e ; "
};
