/* XPM */
static const char *mystic_floor64[] = {
/* columns rows colors chars-per-pixel */
"64 64 161 2 ",
"   c #181807",
".  c #1D1D09",
"X  c #211E0A",
"o  c #1C2409",
"O  c #1C2A0A",
"+  c #1D330C",
"@  c #1E380D",
"#  c #24250B",
"$  c #2A260C",
"%  c #252B0C",
"&  c #2A2E0D",
"*  c #2A2F0E",
"=  c #2B2F0E",
"-  c #2A2C0D",
";  c #2C2C0D",
":  c #2D2C0D",
">  c #2C2D0D",
",  c #2D2D0D",
"<  c #2E2C0D",
"1  c #2D2D0E",
"2  c #2E2C0E",
"3  c #2F2C0E",
"4  c #2E2D0E",
"5  c #2F2D0E",
"6  c #2E2E0E",
"7  c #2F2E0E",
"8  c #2B2B0D",
"9  c #302C0E",
"0  c #302D0E",
"q  c #322D0E",
"w  c #322E0E",
"e  c #352D0F",
"r  c #352E0F",
"t  c #342F0F",
"y  c #352F0F",
"u  c #362E0F",
"i  c #362F0F",
"p  c #312D0E",
"a  c #22310C",
"s  c #23310C",
"d  c #21320C",
"f  c #20330C",
"g  c #22330C",
"h  c #23330D",
"j  c #24310C",
"k  c #27310D",
"l  c #27320D",
"z  c #26330D",
"x  c #26340D",
"c  c #23320C",
"v  c #29300D",
"b  c #28310D",
"n  c #29310D",
"m  c #2A300D",
"M  c #28320D",
"N  c #2A300E",
"B  c #2A310E",
"V  c #2B310E",
"C  c #28320E",
"Z  c #29320E",
"A  c #29330E",
"S  c #2A320E",
"D  c #2B320E",
"F  c #2A330E",
"G  c #2B330E",
"H  c #2C300E",
"J  c #2D300E",
"K  c #2C310E",
"L  c #2D310E",
"P  c #2E300E",
"I  c #2F300E",
"U  c #2E310E",
"Y  c #2C320E",
"T  c #29340E",
"R  c #28350E",
"E  c #29350E",
"W  c #2A340E",
"Q  c #2B340E",
"!  c #2A350E",
"~  c #2B350E",
"^  c #2C350E",
"/  c #2B320E",
"(  c #27380E",
")  c #29380F",
"_  c #30300E",
"`  c #31310F",
"'  c #34310F",
"]  c #31320F",
"[  c #362F10",
"{  c #372F10",
"}  c #372E10",
"|  c #382F10",
" . c #392F10",
".. c #3A2F10",
"X. c #3B2F10",
"o. c #392F10",
"O. c #2F3510",
"+. c #353010",
"@. c #373010",
"#. c #373110",
"$. c #363210",
"%. c #373210",
"&. c #363110",
"*. c #383010",
"=. c #393010",
"-. c #383110",
";. c #393110",
":. c #3A3010",
">. c #3A3110",
",. c #3B3011",
"<. c #3A3111",
"1. c #3B3111",
"2. c #393311",
"3. c #3A3211",
"4. c #3B3211",
"5. c #3A3311",
"6. c #3B3311",
"7. c #3C3011",
"8. c #3C3111",
"9. c #3D3111",
"0. c #3E3111",
"q. c #3C3211",
"w. c #3D3211",
"e. c #3C3311",
"r. c #3D3311",
"t. c #3E3211",
"y. c #3F3211",
"u. c #3E3311",
"i. c #3E3212",
"p. c #3F3212",
"a. c #3E3312",
"s. c #3F3312",
"d. c #383511",
"f. c #3A3411",
"g. c #3B3411",
"h. c #3A3511",
"j. c #3D3412",
"k. c #3D3512",
"l. c #3E3412",
"z. c #3F3412",
"x. c #3E3512",
"c. c #3F3512",
"v. c #3F3612",
"b. c #3D3211",
"n. c #403212",
"m. c #403312",
"M. c #413312",
"N. c #403412",
"B. c #413412",
"V. c #403512",
"C. c #413512",
"Z. c #413413",
"A. c #423412",
"S. c #433412",
"D. c #423413",
"F. c #433413",
"G. c #433513",
"H. c #403612",
"J. c #413612",
"K. c #443513",
"L. c #403312",
/* pixels */
"$ u @.S S @.:.| 9.9.@.% > 9.9.> % :.:.> 2 { 9.:.:.9.u # 8 9.9.> c @.u 8 8 @.@.' u :.0 # $ 9.S.S S @.u % % @.:.:.:.{ @.> > m.m.0 ",
"$ 9.9.S ~ 9.S.S.S.S.9.K K S.m.2 > 9.9.> > 9.K.S.S.S.:.8 8 9.9.> > 9.m.$ 8 9.S.S.S.S.9.$ $ 9.m.> > 9.9.> > c.S.S.S.S.9.2 2 S.m.$ ",
"$ 9.9.K S h.c.c.9.9.:.S > :.9.2 > 9.9.> % :.c.9.c.9.:.% # :.:.8 8 c.S.$ $ :.c.S.S.m.:.$ $ 9.h.c > c.S.2 > h.c.c.9.c.9.2 2 c.:.$ ",
"8 9.m.> % S ^ ~ S 2 > O O S S d S c.9.> O > K S K 2 $ o o $ # . $ 9.9.$ # > S S > > $ # % > x @ d c.S.> O S ~ ~ c ~ K > > 2 $ . ",
"2 S.S.2 % K K d d 2 > > 2 K S + ~ c.m.> % > > d d 2 8 $ % 8 # . $ 9.m.8 # S S O O % 2 $ 8 2 c @ c c.m.8 O S ~ @ + S K 2 $ $ $ O ",
"0 S.S.2 $ 9.:.> 2 9.m.9.9.9.:.% S c.m.2 2 :.9.> > :.c.9.9.S.:.$ 8 9.m.2 > :.h.8 % :.S.9.9.S.:.> 2 S.m.2 8 :.h.c % :.9.m.m.9.{ 8 ",
"K h.:.2 2 m.9.8 $ 9.9.9.9.9.:.> > 9.:.8 > c.S.$ $ :.9.9.9.S.:.> > :.:.S S c.S.2 8 :.m.9.9.m.9.8 $ 9.9.$ $ m.c.K % :.9.S.9.9.:.2 ",
"+ S > O > m.9.8 % 8 $ 8 2 0 K % O 8 $ # 8 S.S.$ X $ 8 % % > > O d ~ S d S 9.9.8 % > $ # # $ $ # # $ % o % 9.c.S O 8 2 8 8 8 8 % ",
"S 2 > O > 9.9.> # 8 $ o % u ` K > 2 $ O 8 m.9.$ X $ $ o o % > > 2 K S + S c.S.> O % 8 . . $ $ $ $ $ # o % 9.9.> + > 8 # o 8 8 > ",
"c.9.:.% 2 9.9.8 8 :.:.% 8 9.9.S.9.S.:.8 8 S.9.$ $ | | 8 8 :.9.9.9.9.:.> S c.S.K S :.:.8 8 | m.m.9.9.| $ $ 9.9.$ > :.:.$ $ :.9.9.",
"9.9.:.> > 9.9.$ 8 9.S.2 2 :.m.m.9.m.:.> 8 :.:.8 8 9.9.2 2 :.9.9.9.9.:.c d h.h.K 2 S.m.> 8 :.m.m.9.9.9.9 $ :.| $ 8 m.S.$ $ :.9.9.",
"> 2 S d d 2 > % 8 9.9.8 % $ $ $ $ 8 8 O o 8 > O > 9.9.2 % > 2 $ # $ % O + S S d > m.S.8 # # 8 8 8 8 > % # $ # . $ m.m.8 o 8 $ $ ",
"% > S ~ S 2 > O > 9.9.$ O 8 # . . # 8 > 8 8 8 O % 9.9.` % > 2 # . $ $ % > K > d > 9.S.8 O # 8 o o % > 8 8 $ $ . $ 9.9.% O % 8 # ",
"> :.c.c.c.S.9.0 0 S.9.8 $ 9.| # # | 9.c.9.9.:.% % 9.c.K ~ h.:.8 # :.9.9.c.c.:.> 8 9.m.$ $ :.:.# # :.m.9.9.m.:.$ $ m.9.% % :.9.2 ",
"> :.c.m.m.c.:.> > 9.:.$ $ m.9.8 8 :.c.m.S.S.:.> S h.h.( ~ c.9.8 % :.9.9.9.9.:.> 8 :.9.$ $ m.m.$ $ :.m.m.m.m.:.$ $ :.:.8 8 9.9.> ",
"+ % > 8 8 > S O O $ $ X $ 9.9.> O > > 8 2 2 $ % d ~ ~ @ ~ c.9.8 o % 8 8 > > > O # 8 8 # 8 9.m.$ X $ 8 $ $ $ $ . . $ 8 % > 9.9.K ",
"+ > 8 # o % K > 8 $ $ # 8 9.9.S d > > # # $ $ 8 S ~ ~ + ~ c.9.2 # 8 # o o % > 8 8 $ > O > 9.9.$ X $ $ o o $ $ # # 8 % + S c.c.K ",
"2 :.:.$ % :.S.c.9.9.:.> K 9.9.K K :.:.$ # 9.m.9.c.c.:.> 2 m.m.2 2 9.:.8 # :.9.9.9.9.:.> 8 9.9.8 $ :.:.% % :.m.m.m.9.@.S ~ S.m.0 ",
"$ m.9.$ $ :.m.m.9.m.:.> % :.:.> 2 S.9.# # :.m.9.9.9.:.> 2 9.:.> 2 S.S.> % :.9.c.9.m.:.8 % :.:.8 8 m.S.S % :.m.m.m.m.:.S ~ h.h.2 ",
"0 S.9.# o # $ $ 2 2 8 O O % % O > 9.9.# . # 8 % % 2 > O # $ > O 8 c.S.% O c S S > 2 8 o O 2 > d S S.S.S O % $ 8 $ 2 > O + ~ ~ % ",
"` c.9.# o # $ $ # 8 $ 8 > 2 > O 2 S.m.$ . # % O O > K 8 8 $ 8 O 8 9.9.% O 2 S O O 8 $ % 8 2 > d ~ c.c.S + % $ # # 8 $ 8 > ~ ^ % ",
"K 9.9.$ $ :.:.8 $ 9.m.9.9.S.:.> 2 S.m.$ $ :.:.8 > :.9.9.9.9.:.> > 9.9.2 $ 9.:.> % :.m.9.m.m.:.~ S c.9.> > :.9.8 8 :.9.9.m.9.:.> ",
"% :.| # $ m.9.8 $ 9.S.9.S.S.c.2 2 :.| # $ m.m.2 > :.c.c.9.9.:.8 8 :.:.$ 8 m.9.S S :.9.m.c.S.:.S % :.9.8 2 m.m.8 % { 9.m.S.S.:.> ",
"o $ $ o 8 S.9.> % > > 8 > K ~ c d > $ . $ m.m.> O % S K 2 2 8 # # $ 8 o # 9.9.> O $ $ $ 8 > > O o $ 8 O % c.S.> o $ $ > > > 8 O ",
"8 $ $ # 8 m.m.2 % > > # % > S ~ ~ > 8 X $ 9.c.> O % c d % $ > > 2 0 2 o # 9.9.8 o # # . o % 2 8 8 $ 8 o % 9.9.> % 8 $ % % > 2 # ",
"m.m.:.8 2 S.m.2 2 :.:.8 > :.c.c.S.S.:.$ $ 9.m.> > :.:.2 2 9.m.m.m.S.9.$ $ 9.9.8 $ :.:.# # :.9.9.9.m.:.8 > 9.9.2 8 :.:.8 8 :.9.9.",
"9.m.| # 8 9.:.> > 9.S.2 % :.c.9.m.m.:.8 $ :.:.% 2 m.m.2 $ :.9.9.9.9.:.8 8 :.:.% 8 9.m.8 % :.S.m.9.m.9.> > :.| $ $ 9.9.% $ | 9.9.",
"# 8 $ o O > c O % 9.m.% O c ~ K 2 9 $ o O % % o 8 9.9.> # $ $ # # $ 8 % % > % O % 9.9.> O > 0 $ $ 8 8 % % 8 $ . $ m.9.% o $ 8 % ",
". # 8 $ > > S d > m.9.% O S ~ g > $ $ $ % 8 8 # 8 9.S.2 # 8 8 o o # $ 8 > 2 8 O % 9.S.K d K 0 # o % > > > 8 $ o $ m.m.8 # $ 8 O ",
"# | 9.m.S.S.:.> 2 m.9.8 % :.:.S S :.9.9.m.S.:.$ $ 9.m.2 $ 9.:.8 % | 9.9.m.9.:.% > m.S.^ ^ c.9.$ $ :.9.9.9.9.:.$ 8 m.m.$ 8 9.:.2 ",
"> :.c.9.9.9.:.% % :.:.> 2 S.c.S S :.9.m.m.m.:.# # | :.8 > 9.9.8 8 9.m.m.m.9.:.> > :.:.S K S.9.$ $ :.9.9.9.9.:.8 % :.:.S > 9.S.` ",
"d S S 8 % 8 8 O O 8 8 % > S.c.~ + S $ $ $ $ $ . . 8 8 o % 9.m.8 O > 2 > > 2 2 % O 8 $ o % 9.9.# . 8 > S > > > O O % S @ ~ 9.c.` ",
"x K > O o $ 8 > 8 $ 8 O 8 m.S.~ + > 8 . . $ $ $ 8 $ $ O % 9.9.> O > > O O > 2 2 > 8 $ . # 9.9.# o # > + O > 2 > > S ~ @ ) c.c.^ ",
"$.c.:.% 8 | 9.9.9.m.9.8 8 m.S.S S :.:.$ $ :.m.9.m.m.| $ 8 9.c.S S :.:.% > :.9.9.S.m.:.$ $ m.m.2 8 :.:.% % :.m.S.c.c.h.~ ~ c.c.K ",
"@.S.9.> 8 :.9.9.9.m.9.> 8 :.h.> > m.m.$ # u 9.9.c.S.:.% % :.:.> > S.S.> > :.9.9.9.m.:.$ $ 9.:.8 2 S.9.$ 8 :.9.m.m.m.:.S S :.:.> ",
"0 S.9.8 O 8 > 8 8 8 % O % 2 > o % 9.m.#   # $ > S ~ > # O % > O 8 9.S.> O % 8 $ 8 8 $ o o 8 % O S S.9.8 # 8 > 8 $ 8 > O O % 8 # ",
"$ m.S.> # 2 8 o o $ 8 8 > 2 > O % 9.9.$ . # 8 % d ~ K 2 > > > % > 9.c.> O % 8 # o $ 8 8 8 2 > d S c.m.$ . $ 2 # O $ 8 8 8 > $ # ",
"$ m.m.> 2 9.:.% % { 9.9.9.9.:.> > c.m.$ $ :.:.> > :.c.S.m.9.:.> > 9.m.2 % :.9.> % :.9.9.9.m.9.` K S.m.$ $ | :.$ $ :.9.9.9.m.:.$ ",
"$ :.:.8 > m.c.> > :.9.9.9.9.:.> % :.:.$ $ 9.9.2 % :.9.9.m.9.@.% % :.:.> > 9.S.2 8 :.9.c.S.m.:.8 8 :.{ # $ :.9.$ # { 9.9.9.c.:.$ ",
". $ $ # 8 m.c.~ d S K > % % % d O 8 % o # 9.9.8 o $ 8 % 8 > % o o $ > O > m.9.8 # % > S S > % . . # # o 8 9.9.# o # > S S S 8 # ",
"$ $ $ # $ 9.S.~ + S S O o # > S > 2 2 O % 9.c.8 o $ $ o o 8 > 8 8 8 8 O > c.m.$ O % % + x K 2 8 $ $ # o 8 9.9.> O 8 > + + S 2 8 ",
"9.9.:.$ $ 9.9.2 S h.:.% # | S.c.S.m.9.% % 9.m.$ $ :.| # # :.m.9.9.9.:.> 2 m.m.2 8 @.@.~ ^ c.9.9.9.9.| $ $ m.S.2 2 :.:.~ ~ :.9.9.",
"9.9.:.$ $ | @.> ` S.9.8 $ :.S.9.9.m.:.% % :.:.$ 2 m.m.$ $ 9.S.9.9.c.:.> > 9.9.2 2 9.9.^ ~ :.:.9.m.m.:.$ # :.9.$ 0 m.S.K K :.9.9.",
"> 8 8 o . # % O > c.9.8 o # $ $ $ $ $ O % > % O > 9.m.$ . 8 2 > > 2 > O % 8 8 % 2 9.9.S + % % 8 $ $ $ . O $ $ # $ m.m.> d S K S ",
"% > 2 8 $ $ > O > c.m.> O 8 8 X # $ 8 8 > > > + S 9.9.$ X $ > O O > 2 8 > 8 8 O 8 9.9.8 O % # O # $ $ $ 8 0 8 o $ m.9.> % K K d ",
"2 9.S.S.m.m.:.> > 9.9.8 8 :.9.$ $ :.m.m.9.c.:.K K S.m.$ 8 :.:.% c h.9.9.9.9.:.8 2 9.9.$ 8 :.:.$ 8 9.9.9.m.S.:.$ $ m.9.> > 9.9.2 ",
"> :.9.9.9.9.:.c S :.:.% % 9.m.$ $ :.9.c.c.m.:.> 8 :.:.> > 9.S.~ ~ h.c.9.9.9.:.8 % :.9.$ 2 S.S.2 $ | 9.9.9.m.9.2 2 9.:.8 8 m.m.0 ",
"O % > 8 8 2 > + @ ^ 2 O % 9.m.$ o 8 c c K 2 2 O o $ % O 8 9.S.~ x K 2 8 8 $ # . o $ 8 O S c.m.> O # $ 8 8 2 > % % > > # $ m.m.0 ",
"% 8 % O # $ K ~ ~ O.2 % 8 S.9.$ o > c + d 2 2 > 8 2 8 O > S.c.~ d > > % # $ # $ $ $ 8 O S c.S.S O % $ # O 8 2 > > 2 > o # 9.m.0 ",
"2 9.:.% 8 :.c.S.S.S.9.8 $ m.m.8 $ :.h.~ S :.m.m.9.S.9.$ 2 c.m.K S :.:.> > :.9.9.9.m.:.> > c.S.~ c :.9.> 8 :.m.m.m.m.:.% 8 9.m.0 ",
"0 m.m.8 8 :.9.c.c.S.:.% % :.:.8 $ m.c.~ x h.S.c.9.9.c.K % :.:.8 > m.m.$ 8 :.m.9.m.m.:.> % :.9.S > 9.c.2 $ 9.S.c.c.c.:.$ # :.:.$ ",
"0 9.m.8 # 8 8 > S K S O o 8 $ # $ 9.c.~ + > 2 > > > S c O % $ O 8 m.m.$ . # $ # 8 > > O O > 2 % 8 9.c.> # > K ~ S > 8 o . # $ O ",
"0 m.m.8 o % 8 d x ~ S > $ $ $ # # 9.c.^ d > 8 % O > 2 K > 8 8 # $ m.9.# . $ $ o # > 2 > > > > # 8 m.S.> O > S @ + > 8 # # $ $ o ",
"0 S.m.8 % :.:.~ ~ h.c.c.m.m.:.$ $ 9.S.` 2 :.:.> > :.S.c.9.m.9.$ $ 9.9.$ # | | $ 8 :.m.9.m.m.9.$ $ m.S.K S :.h.) ~ :.9.9.9.9.:.% ",
"$ :.:.$ 8 9.c.S S :.m.9.m.m.9.> > 9.:.K 2 9.9.$ $ :.c.c.c.S.:.8 $ :.| $ $ m.m.$ % :.9.9.9.m.9.$ $ 9.c.S K 9.9.K K 9.S.S.m.m.:.8 ",
"X $ $ . $ 9.9.% O % 8 8 > 2 2 O % 8 > d ~ c.S.8 # 8 > ~ ~ K > O # $ $ . X 9.m.% o > > > > > $ X o 8 % d K 9.9.> % > 2 > > > 8 # ",
"$ $ $ X $ 9.9.% O % % O O % 2 > > 2 > O S S.m.8 # $ > d + > 2 8 $ $ $ . $ 9.S.8 O % % O O > $ $ $ $ % O 2 m.9.> O > 2 % O % 8 8 ",
"9.m.:.$ $ m.9.$ 8 :.:.% % :.m.9.9.S.:.% > 9.9.$ 8 :.:.> > 9.S.S.m.9.| $ $ S.S.2 2 :.:.> > :.m.m.S.S.:.8 8 S.m.> % :.:.S S :.m.9.",
"S.S.:.# # :.:.% % 9.m.2 8 :.m.9.9.S.:.% % :.| $ 8 m.9.> % :.9.m.9.9.:.> 2 c.9.2 2 9.S.` K 9.m.m.S.m.:.# # :.:.# % 9.9.2 > :.c.c.",
"~ ` $ o o 8 > O # 9.m.8 o # $ $ 8 2 2 % O 8 $ . # 9.9.8 O % 8 8 > > S + % ` K O > 9.S.2 O % 8 $ $ $ $ o o $ $ o # 9.9.> + S S ~ ",
"g K 2 8 8 8 8 % 8 9.9.$ O # $ o # $ $ > > 8 $ # 8 9.9.$ o % 8 % % S ~ S K ] S O % 9.m.> O % 8 o o $ $ # $ $ $ # $ 9.9.> + S > + ",
"K h.9.9.m.m.:.8 $ 9.9.8 $ :.:.$ 8 :.9.9.S.m.9.$ $ 9.9.$ $ :.:.8 > h.c.c.c.S.:.% 2 S.9.$ 8 :.9.8 8 :.9.9.m.S.9.$ $ 9.9.K K h.h.~ ",
"2 9.9.9.9.m.9.8 % :.:.$ 2 S.S.8 > :.9.9.S.S.9.8 $ 9.:.$ $ 9.9.% % :.9.9.9.c.:.> > :.| X $ m.S.2 K 9.m.m.m.m.9.$ 8 :.:.S K S.S.K ",
"8 K ` 2 > 2 2 O O 2 $ # 2 S.S.> O $ $ 8 $ 0 0 # # 9 $ o $ m.9.% + K 2 > 2 K S O O 8 $ . # 9.S.S d 2 0 0 0 0 2 O O > % O > c.S.0 "
};
