/* XPM */
static const char *player64[] = {
/* columns rows colors chars-per-pixel */
"64 64 235 2 ",
"   c #0F0F09",
".  c #100F09",
"X  c #0E110B",
"o  c #141407",
"O  c #1C1C07",
"+  c #15150A",
"@  c #19160A",
"#  c #17180B",
"$  c #1B1B0B",
"%  c #161A06",
"&  c #151613",
"*  c #1B1A13",
"=  c #1C1C1C",
"-  c #171715",
";  c #380D07",
":  c #211E07",
">  c #251209",
",  c #221E0A",
"<  c #2C1C0A",
"1  c #2A1807",
"2  c #361608",
"3  c #221C15",
"4  c #211E1C",
"5  c #2B1A18",
"6  c #361613",
"7  c #1D2209",
"8  c #1F2308",
"9  c #1E201F",
"0  c #222207",
"q  c #24240A",
"w  c #2A260B",
"e  c #252B0A",
"r  c #2B2B0C",
"t  c #232807",
"y  c #32260C",
"u  c #332D0E",
"i  c #392F0F",
"p  c #25310C",
"a  c #2A310D",
"s  c #2D310D",
"d  c #2B310D",
"f  c #36310F",
"g  c #34310E",
"h  c #39310F",
"j  c #222314",
"k  c #2D2C10",
"l  c #23221C",
"z  c #2A211E",
"x  c #272611",
"c  c #352E10",
"v  c #342E10",
"b  c #392E11",
"n  c #36261A",
"m  c #2F3110",
"M  c #2C3210",
"N  c #363111",
"B  c #353111",
"V  c #393212",
"C  c #393111",
"Z  c #3D3212",
"A  c #393212",
"S  c #1F1F20",
"D  c #201F20",
"F  c #1E2021",
"G  c #242424",
"H  c #2A2525",
"J  c #272628",
"K  c #292729",
"L  c #272828",
"P  c #2C2B2C",
"I  c #272924",
"U  c #332928",
"Y  c #2F302F",
"T  c #2F2F30",
"R  c #302F30",
"E  c #2F3130",
"W  c #323232",
"Q  c #3A3535",
"!  c #3C3B39",
"~  c #30302F",
"^  c #410C07",
"/  c #4C0D08",
"(  c #480C07",
")  c #530906",
"_  c #5B0806",
"`  c #540B08",
"'  c #47140D",
"]  c #56110E",
"[  c #4A1611",
"{  c #6B0605",
"}  c #630806",
"|  c #7A0404",
" . c #770706",
".. c #64110F",
"X. c #73120C",
"o. c #621310",
"O. c #741D1A",
"+. c #442816",
"@. c #5E231E",
"#. c #47371A",
"$. c #4A3722",
"%. c #513B26",
"&. c #423A39",
"*. c #513C35",
"=. c #4F2721",
"-. c #6F322D",
";. c #7D320D",
":. c #52421E",
">. c #46403F",
",. c #5B4534",
"<. c #67453F",
"1. c #76430F",
"2. c #4C4543",
"3. c #4C4B4A",
"4. c #484644",
"5. c #514745",
"6. c #524B4B",
"7. c #534C48",
"8. c #52504E",
"9. c #565454",
"0. c #5B5958",
"q. c #675957",
"w. c #7D5F57",
"e. c #6C4E43",
"r. c #646464",
"t. c #6C6D6D",
"y. c #696464",
"u. c #776867",
"i. c #6F6F70",
"p. c #737374",
"a. c #7C7272",
"s. c #7D706F",
"d. c #830504",
"f. c #8B0304",
"g. c #890C0A",
"h. c #930303",
"j. c #9C0304",
"k. c #970B08",
"l. c #88140A",
"z. c #95100C",
"x. c #8E1917",
"c. c #A30203",
"v. c #AD0203",
"b. c #A80B0B",
"n. c #B40103",
"m. c #BB0103",
"M. c #B60609",
"N. c #B41617",
"B. c #853210",
"V. c #89312E",
"C. c #853835",
"Z. c #B82022",
"A. c #AE3636",
"S. c #C10103",
"D. c #C20A0D",
"F. c #C41215",
"G. c #C81F21",
"H. c #CC3638",
"J. c #C62A2D",
"K. c #914947",
"L. c #925250",
"P. c #AA5A5A",
"I. c #B45858",
"U. c #AC4E4E",
"Y. c #88645E",
"T. c #9C6965",
"R. c #8B7876",
"E. c #8A7776",
"W. c #9A7B78",
"Q. c #9B716B",
"!. c #A96A69",
"~. c #A77A76",
"^. c #B77575",
"/. c #D54A4C",
"(. c #D55657",
"). c #C64143",
"_. c #DC5F60",
"`. c #DE696B",
"'. c #CE7676",
"]. c #C26060",
"[. c #E06D6E",
"{. c #AF817F",
"}. c #978684",
"|. c #B88886",
" X c #AB9493",
".X c #A59392",
"XX c #AF9492",
"oX c #B5A09F",
"OX c #BCA4A3",
"+X c #BAA5A4",
"@X c #DB8687",
"#X c #C49A98",
"$X c #D69999",
"%X c #CB8C8C",
"&X c #E48283",
"*X c #E48C8E",
"=X c #E78E91",
"-X c #E39C9D",
";X c #EB989A",
":X c #F09899",
">X c #F19DA0",
",X c #C7AAA9",
"<X c #DBA9A7",
"1X c #D0B1AF",
"2X c #D7BAB9",
"3X c #CAB1B0",
"4X c #EBABAC",
"5X c #E3A9A9",
"6X c #ECBAB9",
"7X c #EBB6B5",
"8X c #F4B2B3",
"9X c #F4BBBB",
"0X c #F9BBBC",
"qX c #F6B7B8",
"wX c #F0A2A3",
"eX c #DFC1BF",
"rX c #F1C0BE",
"tX c #F8BEC0",
"yX c #DFC2C1",
"uX c #E2C4C3",
"iX c #E7C8C7",
"pX c #EBCCCB",
"aX c #E9C2C0",
"sX c #F6C3C2",
"dX c #FAC3C4",
"fX c #F6CECD",
"gX c #FBCCCC",
"hX c #F8C6C8",
"jX c #EED0CF",
"kX c #FCD0CF",
"lX c #F5D1CF",
"zX c #F4D3D2",
"xX c #FBD5D4",
"cX c #FCD9D7",
"vX c #FCDADA",
/* pixels */
"w u g a a g i c h Z N r r V V u k N u e k c C C C C r q r C C m M C i w e B N g g i v w w C C B a g u r e s C Z Z C u r r N N r ",
"w i N k m C Z C C Z C r s N N u r N h r k N Z Z Z Z u e r C h r e g C u r N Z Z Z Z b w r C C s r g N v k N Z Z Z Z N s u C C r ",
"y b C B m N C V N N N r s B B s r C C r r B C N C N r e e c u r e C Z r w c C C g C c r w c B p a C Z u r g N N g C N a r N i q ",
"r C C r e s g a s r r e e s a p s g g r e e a M m k e q 8 w q 7 e C C e q e m a s r r e t r a p a g h r e s s a a m m e e r w O ",
"r C C r e s s e r r r r r g s p a g g r e r a e w e r r r e e q w C C k q e a e q e r a r r a p s C C r e s a p p r k u r r w O ",
"v C C u r g g r r c C C C C B a s C Z u r N v , o : u c c u w 0 q w r w r u i q o O r C C C B a v Z Z v k N g a a u C Z C C c e ",
"r g g r u C C u r i C C C Z N r r N N r u C c O   $ w w w , @ o @ @ o o @ w w ,   o w i c b c r r c N r k C C r r i Z Z C C N r ",
"p a a e r C C r e r r r r i g r e r r w r A i O & 4 4 * - - - = G = - & + * l l - @ , q w w r r w e e 8 e g C r e r u u r r r e ",
"r s a e r C C r e e r q r u g s r r e q r v e $ - K K J G J P K P P K K J G L P G @ + @ O q r r r e w q w b C r e r u q q r e r ",
"C N B r u Z Z u r u c k r g C V C N u e 0 $ $ * G K P K K K K P P K K P K K K P J = * o $ k N Z C C c r w b C r r g i w w u C C ",
"C N B a r c c r r g N k e i C C C C u 0 @ - G J G K &.6.&.U P >.9.6.W H W 6.4.W J K K = + w b C b C N r w u u e e C Z u w v b b ",
"k m a p p a e e r g g r e r w w w r e O + = K J W y..X+X XE.u.}.,XoXs.u.}.+X+XE.2.P P K * @ q r r r r e e w q 7 r C C r q e w w ",
"e r s a a s r e r C N r q w w : 7 q e 7 - J P 2.R.1XzXcXzXiX2XpXcXzXeXuXjXzXzXuX Xq.Q K = + $ 7 q r r e e w w , w C C r q e e e ",
"r c C C C C b v N C C r r u u q e u c x * G Q R.2XzXzXpXpXpXzXcXvXvXcXzXpXpXjXcXzXOXq.H - $ w q q i N g g C b w u Z C r e u i r ",
"a N C C C C N u k N i w u C C r r #.%.$.4 J 0.3XzXuX XE.s.R.oXiXvXzX1X}.E.E.W.,XfXpX}.Q * n %.+.v c C N C C c w w c u e r N h i ",
"p p r r r r a e e r w q w C C N %.w.~.Q.q.6.E.yXuX}.6.4.! P 6.OXzXuXR.&.Q 4.>.q.,XpX+Xq.7.Y.~.T.,.Z u e e w q O O w r e r C C g ",
"e e e q e r a a r w w q e C A :.T.$X6XrX2X+X3XiX3XE.a..XR.*.e.,XzXaXW.*.q. X}.u. XyX2X+X3X6X9X4X|.e.b x j w w q w w e e a V V N ",
"m N N e e u N C i i c r r N #.e.$XdXxXxXgXhXlXxXuX,X+X1X{.K.!.6XcXfX#XY.T.$X1XOX1XpXzXhXhXgXxXkX4XQ.$.r e u i C C C g a s C C u ",
"r C Z r w i C V C C u w w y b ,.^.4XhXgXsXqXhXxXlX<X|.~.!.^.5XgXcXkX7X%X!.!.~.XXuXcXgX0X0XgXkXrX$XY.$.y < 2 y u C C g p a N N r ",
"r C C w : w r r w w 1 ; ) ) ^ [ -.P.=XqXdXqX9XxXzX9X5X<X5X6XgXxXgXgXkXhX5X<X<X6XfXvXgXqXdXdX4X'.K.@.[ / ` ( ; , r r r e a m m p ",
"g C C w 0 r r q q q < ( d.h.d.| d.N.(.>XdXhXhXxXvXcXxXxXgXgXkXgXgXgXxXxXkXkXxXxXvXcXgXdXgX0X@XA.g.d.| f.f._ > 0 q r r r B B m p ",
"r C C r w v N u e v y ;  .j.v.n.n.M.J.&XqXdXxXvXvXvXcXfX7X7X9X4X$X-XqXtX4X9XcXvXvXvXxXgXqX:X(.N.v.n.n.v.f.` 2 w r u C C C C g s ",
"r i u w r C C u r N i < ^  .c.n.m.M.M.H._.&X8XgXvXvXxX7X^.|.<X!.V.K.#X$X^.%XgXvXvXxXdX:X[./.G.m.n.m.m.j.} ; u e e u N C C C u e ",
"e w w q u C C r q r r q > ) h.n.m.m.m.D.F.J.[.8XxXvXxXwX!.L.!.K.O.-.T.L.K.'.sXvXvXgX:X/.F.D.m.m.m.m.v. .2 y b r q q r r r v e q ",
"w w w q r V C r e r r e 0 ;  .c.n.m.S.S.m.D./.4XcXvXxX4X^.P.I.I.U.I.].P.U.&XhXvXvXhX&XJ.m.S.S.m.m.m.h.) < i C r q e e e e r r r ",
"C N u r r N C r r g u k e < ) f.v.n.n.v.c.b.).;XgXxXxXdX4X-X;X=X=X=X;X:X-X8XxXvXxX9X'.Z.c.c.v.n.m.c.{ 1 q N N r r c B k r c C c ",
"N c u e r N g e r C C r r e 2 } j.v.d._ ) ) O.I.&XwXqX0XdXgXdX0XdXqX0XgXgXdX9X8X;X'.C.] ) _ | v.n.d.^ O e i u w e C N r r i b b ",
"w w q q e k m e r C C r e p q ; | d./ 5 4 > ` z.Z.H.(.`.@X4XdXgXgXgXgXdX-X[.(./.J.N. .; 5 5 / f.h.} 1 0 e y w , w V V r 0 w r w ",
"0 w e e r k r e r C C r e p r < ^ ^ 5 H 5 ( d.v.n.M.D.F.A.|.9XhXhXdXdX5XP.Z.D.M.v.n.j.{ 5 G H [ ) ; q r r u e O r C C e q r r q ",
"w u C C C C g r r C C r r i N q $ j P H ^ | v.n.v.n.m.m.x.Q.aXxXxXxXxX,XK.b.S.m.n.n.n.j._ 5 K H 3 @ e N C V c w r C C r r N N k ",
"r B C C C C N r r c N r u i k 3 S K T H ( f.v.n.M.n.m.m.b.L.,XzXvXvXiX}.V.M.m.M.M.m.m.c.{ 6 K P G 4 x c C V c r r g g r r C Z N ",
"p s r r r r e e q r e e u r 3 G K P T K 6 { c.n.n.n.n.m.n.x.Y.3XjXuX X-.k.m.n.v.n.n.v.f./ n K P P H 4 0 e r r e e a s p a N V N ",
"a s r e e r r r w w r e r w * G J J P P 5 / f.v.n.n.n.n.m.j.O.w. X{.-. .v.n.n.n.n.n.c.{ 6 P K G P P = # 7 e r r m m a p s N V r ",
"N C N k r u C C Z Z N r r w * G G J P W P 6 { c.n.n.v.n.n.n.c.O.e.-.g.v.m.n.n.n.n.n.f./ z P J = K P = # w g N V C C g a a N C g ",
"N Z Z v k c C C C V B r e w + - G P Y P P z ( f.v.v.v.n.v.n.m.j.X.g.v.m.n.n.v.n.n.c.{ < I K S G P P = + w N V C C C N a r g B r ",
"i h h r q r r r r r e e e q o - K W L J T P 5 } j.n.m.n.n.n.n.c.g.k.c.n.n.n.v.v.c.| ^ z P J - K P L - o 0 r u r e r r e e e e q ",
"u C C r e r e q t e r r r 0 + G W P G G P W H 6 { c.n.n.n.n.c.l.B.B.k.v.M.n.n.v.d./ 5 P W J = P K = - o O r u w q w r r r r w q ",
"u C C r r i u e r u N C N w * K W P J 4 J R E G ' | c.n.v.n.c.g.B.B.k.n.n.v.v.j._ 5 P W R J G P K = & + 0 r N r e i N g g N c y ",
"w u i r r C C r r u N C N w * L W W P G D P W P 6 ` h.n.n.n.v.j.l.z.c.n.n.n.v.| ; z Y E K G H ~ P F X o w c N e e u N N g N c w ",
"q w w q r C C a p a u r r O * K W W W K = G W P = > } j.c.c.h.X.1.;.k.c.j.j.d.( > H P E K G P W W J   . w b c w 8 q r r a m e 8 ",
"w w w , w C V a p a r t 7 # * K W W W P J G P P = = U @.o...] +.:.%.] ..o.@.=.H = J P W W P W W W K - o w C i e e e r a p p r r ",
"i C u w e C Z s a N u q 7 + = K W P W W P K P K J ! 0.9.5.5.5.2.7.7.2.5.5.8.0.3.J J T W W W W W W T G @ , c N u u c N s a B C C ",
"N C i w w i c r s A g q % @ J E E P P W W W P K H >.t.p.t.t.t.r.r.r.t.i.i.p.p.9.P J P P W W P P P W P = @ r v u i C C g s N C C ",
"r r r 0 0 w k e r Z i 0 o * K E P L J P W P W K l ! y.p.p.p.r.3.! 3.r.p.p.p.p.9.P L P P W W P G L P P G + , r e u C C s r r u r ",
"r r u w w u k e r C c 0 + G R T J D K W W T W K G Q 0.p.p.t.8.I # G 8.t.p.p.t.3.P P W W W W T J G P T P = $ q e w b C a e r s a ",
"g N C C C C v r r c c $ = P W P G = P W P P W W P P 4.r.p.p.9.G + l 3.t.p.i.9.W K T W R P P T J = P W W J * 0 q u b C r r B B s ",
"r i C C h h g p a N e $ G R E L S J P P L L T W W K K 4.y.t.9.G % l 3.t.t.9.Q K P W W K G K W K S G P W P = O q u N B r r N N s ",
"e e e e r u s a a B 0 * K W P G = P P P J S P W Y P L W 3.0.3.G % j 3.r.9.! K K E W W L S K W P J = K W P 4 % 0 e r r e r C Z u ",
"e r e q e w u g B r % * P W P 4 G P E R H = J W W E P K P Q W = % 7 W 3.Q K P P R W P F J P E E L = K R E G + $ e u r q r N Z b ",
"B N N r e i C V Z v * - L P G - G K P P H = = K P K P G - = * $ q q j L = = G K P P J = G K P P L = G P P = @ 3 k C b e r C Z i ",
"i C C k r u N V c q 3 * G G - + * * = = = - - = S = = -   X o % e r @ - & X - = = = - - - = D - - * @ * G = * % e N c w q u c r ",
"r C C e q r r r e 7 $ $ * $ + % * + * = = = = = = = - - - - o % e u @ + - * * S G = - - - = - - + w w $ $ $ $ % 8 e w 0 O q w q ",
"r C C e q r r r p p r e q w w , $ q q * * * * $ * = * $ * $ $ 0 w b w @ + @ @ * * * * 3 3 3 3 % q N N e q e r e e e r e w w q q ",
"c C C r r g C N r B N C C h i w e v v e e e r , $ w r r u u r e u b c q , w w O O 0 r v c v v w u h g a a B N M a g g C N i u e ",
"v c u q e C C N B N N C C h N e e u N s s N N r e B g C C N N r r u u q w i c e r r N C C C i w w i N a a N N a s g h C C C g r ",
"0 w w q r N N r e e r r r r r e e r u r B Z C e q e s s r B r w w w q $ q c C r e e r r r r r t 0 u r p a C C r e u u r r r e q ",
"r r q q e C C e e e r e e r r r r r r e s V V r q r r e p s r r w w w : w N C r e e r e e r r w w u r e r Z V r e r r e e r r e ",
"N C c x k C C r q u u e e g C C C C i r r N C r w c N k a g N V Z c u w r C Z u r N N m m N Z C Z Z u r r Z C r r B B r a B C C ",
"C Z c q w N N e w b C r r c C C C Z g r r u u w w Z C r e u N V C N N r r N N r u Z Z N k N Z C Z C u e r i u e r N C g s N V Z ",
"s g r , 0 r r e w i C r w r r r r v r e e r w 0 w C C e q r r r r r r r r g s e r C C k e r r r r r q O 0 q w 8 r C C r e a s s ",
"p s r w r r r q r g N e q w w q q r r r e k e q r C b q q r r e e r s s s N r 8 r C C r e e r q 0 w w w w e e q r C N r e a p p ",
"M g N V N N i r e N C r w u u w w i C g C C c e r b c q q u u r r N N N C C N e r C C w w u u r e i C C C C N r u Z C s s N N s ",
"s g C V N C N e e c N r r C C r r c Z C C Z c r w u u q q c C e e B N N C Z N p r c u q w C Z u r i Z C C Z N r r i u r g V V N ",
"r u i r r s w q e r r w r C C r e k i u u i r q q e w , w N B e e m r r u i s e e e w : w C Z r p r u k r c r e t e e e r C C u "
};
