/* XPM */
static const char *wall64[] = {
/* columns rows colors chars-per-pixel */
"64 64 151 2 ",
"   c #1A1E0F",
".  c #1C2112",
"X  c #202418",
"o  c #222525",
"O  c #2B2F22",
"+  c #222529",
"@  c #26292B",
"#  c #2A2C2C",
"$  c #2B3022",
"%  c #2E322E",
"&  c #2B2E31",
"*  c #2E3135",
"=  c #313435",
"-  c #343639",
";  c #36393C",
":  c #393B3E",
">  c #3E403E",
",  c #474A3F",
"<  c #373B40",
"1  c #3B3E41",
"2  c #3E4144",
"3  c #3F4348",
"4  c #414346",
"5  c #444649",
"6  c #46494C",
"7  c #4A4B4E",
"8  c #515545",
"9  c #5B5F4F",
"0  c #4C4E51",
"q  c #504F52",
"w  c #4E5154",
"e  c #515356",
"r  c #595C55",
"t  c #545659",
"y  c #58575A",
"u  c #56595B",
"i  c #595B5D",
"p  c #63665B",
"a  c #676A5C",
"s  c #686B5F",
"d  c #5C5E61",
"f  c #5E6063",
"g  c #626466",
"h  c #676965",
"j  c #6A6C62",
"k  c #646669",
"l  c #68676A",
"z  c #66686B",
"x  c #6A6B6E",
"c  c #6E706E",
"v  c #707462",
"b  c #70726B",
"n  c #6C6E71",
"m  c #706F72",
"M  c #6F7173",
"N  c #727375",
"B  c #797B77",
"V  c #757679",
"C  c #77787B",
"Z  c #7A7C7D",
"A  c #7D826C",
"S  c #7F807F",
"D  c #818572",
"F  c #808379",
"G  c #7D7E81",
"H  c #7F8083",
"J  c #828385",
"K  c #878886",
"L  c #8A8C85",
"P  c #858789",
"I  c #848688",
"U  c #87888B",
"Y  c #87898A",
"T  c #878A8C",
"R  c #87888B",
"E  c #88898B",
"W  c #898A8A",
"Q  c #8E8F8B",
"!  c #888A8C",
"~  c #888A8D",
"^  c #898B8D",
"/  c #898B8E",
"(  c #898C8D",
")  c #8A8C8E",
"_  c #8B8D8F",
"`  c #8C8E8C",
"'  c #8C8D8F",
"]  c #8C8E8F",
"[  c #8D8E8F",
"{  c #8A8C8D",
"}  c #8F908E",
"|  c #94968F",
" . c #91928F",
".. c #8C8D90",
"X. c #8C8E90",
"o. c #8D8E90",
"O. c #8D8F91",
"+. c #8C8E91",
"@. c #8E8F90",
"#. c #8E8F91",
"$. c #8D8E91",
"%. c #8F9192",
"&. c #8F9193",
"*. c #8F9091",
"=. c #8F9194",
"-. c #8F9294",
";. c #8F9093",
":. c #919293",
">. c #919294",
",. c #909294",
"<. c #929394",
"1. c #919396",
"2. c #929396",
"3. c #929496",
"4. c #929495",
"5. c #979896",
"6. c #989A94",
"7. c #959698",
"8. c #959799",
"9. c #959698",
"0. c #979899",
"q. c #97999B",
"w. c #96989A",
"e. c #989998",
"r. c #98999B",
"t. c #9A9B9D",
"y. c #9A9B9D",
"u. c #9FA09E",
"i. c #A0A19E",
"p. c #9D9FA1",
"a. c #9C9EA0",
"s. c #9E9FA0",
"d. c #9EA0A2",
"f. c #A0A1A3",
"g. c #A2A3A5",
"h. c #A8A8A7",
"j. c #A4A7A9",
"k. c #A5A7A9",
"l. c #A7A8AA",
"z. c #AAABAC",
"x. c #ADAFB0",
"c. c #AEB0B3",
"v. c #B2B3B4",
"b. c #B6B7B8",
"n. c #B6B8BA",
"m. c #BBBCBD",
"M. c #BDBFC0",
"N. c #BEC0C2",
"B. c #C2C4C5",
"V. c #C7C7C8",
"C. c #CBCBCC",
/* pixels */
"V n H ) g 5 6 x C N > # - = @ 1 0 z Z J e.| j A A v p w - 4 e 7 u 6 # + 5 n ' P V z t w d t 4 0 e i g 5 = * - d H Z x w 6 1 - 2 ",
"M N N g 7 6 u N V g 1 - 5 2 : u z N G H W K D D 9 8 s k e f N x u 2 * # w J ) x t w 0 u f t w 7 6 i z u e 0 0 g Z C k u t 0 5 6 ",
"M N V k d k z N C z u u k k n I ) q.f.8...} L a O $ r N Z V C C M g u u n ) J V M g u g z g g u i N V z u e e u x z n Z J Z n k ",
":.' P M z Z %.,.^ P H Z G J ,.U Z ,.q.Z N c h ,   . > k Z N J J ^ ^ H Z Z U J ....Z N G P G C k M q.p.r.V z N C I P %.,...U 3.^ ",
"' J n i u N ) Z N H U J G ^ 3.n u N Z 0 5 6 > O . X o 1 0 w Z G ^ G z d d k f C N n Z Z J I J i k ' ..-.Z C W %.^ ) ..' H z P H ",
"K Z z z z x n u x U 8.q.p.j.-.V z V V 5 4 4 - % # o o - : : n I N u t e e e w z i u V H I Z k 5 d C N H J I ..,.^ T ..e.^ d C P ",
"C C C N d i k z G %...H G V N H x V H u w 5 2 4 : - * - - : z g 4 7 C Z Z Z Z G n N ) J z w : : e t e Z J N J ,.Z V T ) N w M ) ",
"V Z J M 0 w Z %.%.^ z e 2 1 u M u z C g 0 e f z f w 2 2 1 : t 0 : i P Z B I U J H 3.r.k - & * : 5 4 5 C N u N W N x d e 5 : z ..",
"N Z Z k 6 u U ) I P n 6 - 6 N C e k C t 6 n J P C g 0 6 2 & - w e n x w 6 g n t t H Z 1 & & & & : 2 u N z g N G g 6 : : 5 : u Z ",
"N G H k t x Z i u z u 1 2 t M z w z J k e G %.8.3.P u 5 2 & * 7 d U N i t z 7 @ @ 5 5 = : : & & 1 u Z C u e d d 5 * * - 1 : 0 g ",
"x Z N z k N n 4 - : 1 1 6 z Z M f x U z e J ..3.g.p.n e 5 & * : u 8.H z V P e & # 2 5 1 1 e t 6 i N Z I N d 6 4 2 : : 5 0 6 e z ",
"d k z k i f n u 4 2 6 t z C I I g x Z t 4 z V V Z V k u 6 - : 6 z H d u V Z t 6 e M G z u M Z k Z P ) 7.J x t 7 1 2 6 g x u n J ",
"g n Z C f f V N z z N J P Z H Z g z k 6 2 0 e u u t e e e 5 5 t N N t 0 i e 0 d M J ) I N M C z U ,.7.U k t u e 7 t g V V z J ^ ",
"N C P ..J J 3.7.%...) U ^ I J Z M N N n z x Z I P J V C z 6 - 2 k N k g z f N Z I H H Z V M z z G Z u 6 e t u u n J P u 4 u V N ",
"u N ,.y.I P r.f.q.) I ) ,...^ H Z U 7.3.J U 8.,.8.^ J J Z g : - f M e g N g J ,.%.) q.%.%.,.%.q.g.) u 6 n 8.,.) p.g.,.0 o 5 W ,.",
"5 N p.q.M H 7.P g u e n C N Z G J 8.z.,.z Z J N n z Z J 8.r.k e M k e N x 7 g C N ^ g.p.) ^ 3.p.r.J H N H y.3.z.r.k g N 0 g y.y.",
"k G 3.J J y.e.n 6 4 0 k N c J r.r.8.q.) ..7.J C N N ^ y.z.x.C N J V V Z g 0 N J H y.p.V e z I I G N N z H ,.) q.k 1 u ^ n z ^ V ",
"q.y.y.' q.p.8.Z g g g z P :.r.p.%.G C r.f.8.J H I I r.v.v.d.N J %.J G V u 0 V ,.q.y.G t 5 x I G V C N z G q.T M 6 e C H e t G z ",
"G ) e.e.8.,.8.P k x t k ^ 8.8.8.J z z r.P Z H V x M 8.v.v.7.G J I n N x 7 4 n r.y.U N k z V Z M N x N N Z -.t : 2 0 g u 5 g V Z ",
"w 7 u N ..7.3.Z k i 6 z Z N M V k w u M g Z J k e g ..z.r.J Z V x d u 6 - 4 H d.8.U Z Z Z n g u k u k z N H 4 = 7 u 6 : 4 u g V ",
"5 4 i J 3.3...I M f t N k e i 6 - - 2 i n M t 1 : g %.7.N g z z d e 6 : = 5 H ,.^ J d f M z x g k z C N M n e f G ^ z 7 6 t z f ",
"t V %...Z N J I z i u N k C M : = 1 7 M V u 1 : 7 V ,.J M x g e 0 e d g e u T U V g 4 0 f t z z t g ) ..V C N U y.y.P M N Z n 5 ",
"I ) Z k t 0 u u 6 6 i N N ..C f d k H %.Z g u z Z P 3.%.^ U Z x M n N N d z %.H M f 4 : 4 5 u t 5 N ) Z k Z P I -.,.J n C G u : ",
",.U C x d t d e 6 e x H J C n V V N P ) ' ^ U ..^ J ' e.r.%.^ P G N V g t M P G H Z u 5 6 t k i e V n 0 0 k x z N N k k N n i t ",
"J J Z H G N N M N J W %.:.J H J 3.7.y.r.g.g.p.y.e.q.l.v.j.l.g.q.7...U Z Z U ..J ' g.8.....) %.%.) ,.Z k g x N n M M z z z d f k ",
"I U n d x x g M V J  .<.W V x x ,.,.I I %.W J :.8.g.v.z.^ ^ V Z e.7.J J I Z J V Z ..%.%.3.q.8.:.3.3.J 8.r.3.-.q.r.q.) +.) ..3.8.",
"J %.V k V Z W :.W Q 6.i.J k g N P ' Z Z W V x g.z.v.m.g.G t 6 N ..J C G Z z Z N M U W Z P H Z C J n g ..P H I J I J Z Z ..j.f.g.",
"V C n M z V ' :. .6.6.L k e k J J 3.) N J N z p.7.8.3.I z 5 6 Z 7.W ' :.W Z ) N z ^ e.,.U M z Z %.G g G Z Z G g g M x z U %.Z ..",
"e g n Z N Z ..' :.<.L h 4 0 Z U J ,.P n J J M P i d z x u 5 u P e.e.g.y.G ^ %.k g C ^ H z w 6 z G V z U ) 3.J n n C I U ^ C x G ",
"z C N n z n Z H Z B F u - t H W 3.3.V g G J x N 6 e z d 6 5 n r.e.P ..N t k u 6 d x x f d e 4 u k z z T ) y.J Z V C %.) C t w u ",
"z N x d 0 0 k V N b h 6 4 u k J 3.P x g V n g g t d g e 7 i I e.J N l 6 2 6 5 7 u i i e 0 5 1 7 t g d Z G G C Z n z ) G d 6 u z ",
"n N J I x N 3.d.y.5.C 7 0 g d Z ^ J C n z n Z J V N V V H ) d.y...^ N d i z N M z N N k u 1 : 0 t i t z z z k g u g C M g k G J ",
"x x H ..G I r.p.p.:.P u u k g n U g.d.G Z y.z.j...W J Z :.8.^ C J g.r.' U e.y.G V 3.,.8...Z N V T 7.P J H G I U Z ..U G Z Z Z x ",
"M k n ) J I ^ V z G ) z g d g z J v.v.r.y.v.v.l.G M k V W J g 7 k 7.d.r.y.7.I N W p.H ^ I G n g C q.l.j.-.,.d.d.) ^ C H H P C k ",
"w u N W H P C f g ..d.Z N g t u N d.z.x.g.g.z.8.k f J e.G N C d g :.e.,.y.,.C C y.f.M N z n d w g -.g.l.g.m.n.^ N U ..%.q.7.I C ",
"u d N Z N N z f N ,.y.) ,.G d u Z y.,.J N G %.C q g p.p.l z J g g 4.l.f.e.7.N Z f.7.k M V H d 0 N -.Z G t.c.,.k N ,.J G -.T G N ",
"M d z Z x k z d Z ^ ^ ,.p.g.:.C %.^ f e u N P g 5 z y.J 7 y k q g y.v.l.e.^ n Z ^ Z u M Z x 6 g y.T z k N M t e N Z k I t.V z d ",
"k u V 3.G z i t I y...P ) 3.%.Z Z z 0 w i n P x 6 d ' V 6 5 l t g j.m.g.7.' g e u d e N G u 4 I l.) Z C N u 5 5 z M f -.I u t w ",
"t u Z P x k u u ,.d.C Z q.W g e t u t 6 u N J g 5 u ' ' d u Z u k f.z.y.U ^ z 5 7 e e G ,.d g g.+.M u z T N 0 3 d C G t.G 0 2 6 ",
"0 e k g e e e i G N u V y.^ d 6 7 u k d N J C t 4 u J N u k N y z %.0...C V w 1 5 7 u Z H g ,.%.u w 6 u +...k t z ,.c.j.G d w g ",
"x V U Z k d x N N z f x G J k 0 t f k n J U ^ C u u z g d g z d x ....N u 0 : - 2 0 g V n g U g 6 d t z T H n V U z.B.y.x k G ,.",
"y.p.q.N x N ,.p.8.) Z M C J V g d z C J ) 8.r.W n k m V z g g g x U Z k u e 5 4 6 d C H z d e 6 t z x I H n N P 8.y.8.G z N V G ",
"e.:.H g u z f.l.q.q...,.r.e.3.^ Z J 7.%.p.v.x.%.P r.y.%.Z g d z Z 7.' J M g u 6 6 N %.,.I Z n u d Z ^ +.+.7.y.a.q.P C M M C V M ",
"' ^ J k 7 k l.l.8.7.e.y.5.7.e.7.8.y.f.r.p.g.%.G r.b.g.' ' J J ,.g.z.p.p.H J ..Z Z p.c.l.p.d.g.I z +.l.g.j.b.N.B.v.' J U H G P J ",
") ) P z 7 N g.5.J I e.u.' W ) %.e.%.,.) I J x N e.p.P J ,.p.g.z.g.r.p.g.3.g.v.z.z.x.v.g.,.%.r.Z k r.l.3.-.d.z.j.r...) 3.q.q.a.l.",
"7...J i 7 J e.Q J K y.f.' K W :.7.Z V G I H Z H 7...Z P ^ d.m.C.m.v.z...:.l.v.y.f.8.7.I G I G d f t.q.7.8.8.H k z P ,.7.r.x.b.n.",
"} I J h k 5.y.7.W W 5.e.W } 5.7.) g u G :.U I J P n k x V d.m.v.m.V.y.G %.z.g.N M C N k Z N t u n I I ) U V t w d n P %.-.z.N.N.",
"V x J J W g.y.7.J z C W K K K W C u i H ,.^ P I J z u d C p.8.' y.,.N k C 8.%.f e z C M I N t z J ) C d 7 4 2 5 e d H %.I ^ t.-.",
"N N I P H G H J N t 5 w u d k k z k M ^ 8.,...P H z u n J ,.^ 8.J i u e t M G d u z x G P V x U T ,.U g 6 1 * * 0 Z 3.%.H H G f ",
"W 7.g.y.G g x z d g d i t u z N C C N J 3.%.H Z x i u N ' 7.J Z g e u e u C N d N J z n V Z P ,.P e.8.J x 5 * 2 n ,.q.H x g f t ",
"..v.V.v.r.%.,.n e d J ) Z ..j.j.y.e.W ) f.3.J ^ G Z N H j.M.z...V g d u M ^ J N Z U G Z Z H P P I ' U G C f t n ^ ..Z f u 6 0 d ",
"y.v.v.,.3.g.y.z e d V G P z.B.v.l.u.' ' ^ M V %.7.j.l.g.v.v.b.g...V N n %.f.r.f.r.7.3.r.8.r.,.3.r.y.8...8.3.7.y.j.d...Z n k M C ",
"J d.3.G Z J J g d k N P ' v.v.:.B B J <.^ z C ) ) y.e.' 7.f.g.' C x U P r.:.%.g.,.H Z %.q.r.,.%.7.g.8.,.7.3.-.7.g.y.r.8.U ,.g.g.",
"M ,.j.8.C k k u k x M J U v. .r g B U 7...M V Z N N J q.d.z.7.J C M 3.p.g.d.z.j.P Z J %.8.p.d.P ^ p.Z z Z ,.-.%.%.W U ) G %.d.g.",
"z I j.r.V f e e u g z V V ) h i N S ' :.^ H V M d x :.f.l.l.J N V Z l.z.f.m.N.) u u V ..:.^ H k N J i u G g.t.G N G ) H x J d.d.",
"f z I H k d w t 0 z :.G x V x B V C ..Z V G M e 5 n y.g.y.J k t z H x.v.v.V.z.g : 5 Z 8.C i e 0 d z e t H y.+.P %.3.+.M g G y...",
"5 0 d z i 0 6 t e C l.J x Z J ' J C V e g N 0 = : g G J ..U V u t Z z.m.z.p.M 2 4 f I G e 2 2 6 u t w w n %.j.n.j.3.C t u J %.n ",
"4 6 w u e 5 6 i g C ) G C :.y.z.f.N t 6 d t = = 1 0 f Z J J K x f Z l.x.I d 6 2 u d t 0 2 5 5 6 i 6 5 6 x p.b.c.+.H g w d +.%.N ",
"t 0 t t 0 0 i x N U r.3.G y.l.v.e.k t t V z 6 7 6 g C ) J N z i x J p.j.N 0 6 2 6 5 2 w g N N N x 5 w z V G H H I T g w f ,.r.P ",
"-.Z Z C z N M Z r.m.m.g.3.f.j.y.J N M I j.f.H M z G G J I C z i C U ^ ^ J g w : < 1 w G ,.H C J G z C I J C f u M n 0 6 d y.l.,.",
"g...T H ^ f.8.y.n.N.v.v.N.B.m.g.%.e.f.f.y.p.e.^ J H N C I J Z Z W I U U ,.I z i u f n I +.G N Z H H H P J H M u d e 3 6 n z.v.l.",
"Z g z x P y.l.v.l.p.r.v.m.z.g.v.v.m.C.v.e.f.y.e.......' f.e.g.v.m.x.l.g.v.b.j.j.z.x.z.g.y.l.l.l.z.g.T U W W %.%.H z u d I l.j.r.",
"i e z N J e.g.7.W :.e.h.l.} V f.v.b.C.g.' 7.C C Z N z Z 7.J l.m.z.:.Z Z p.z.f.l.b.x.q.G V y.x.z.z.f.^ r.y.y.l.v.z.a.I H -.3.H z ",
"N C G N K y.e.W :.e.y.l.g.Z g ^ z.m.m.' K %.V C V e u ,.7.k g.v.%.z e x U %.B J ..z g d d H :.p.y.H n %.3.8.7.q.a...+.T N N P V "
};
